# xmcd CD database file
#
# Track frame offsets:
#	150
#	16053
#	34618
#	64500
#	85017
#	98927
#	113450
#	157328
#	170078
#	187063
#	218175
#	258296
#
# Disc length: 3669 seconds
#
# Revision: 0
# Processed by: cddbd v1.5PL3 Copyright (c) Steve Scherf et al.
# Submitted via: CDex 1.51
#
DISCID=990e530c
DTITLE=Stevie Ray Vaughan - Live at the El Mocambo
DYEAR=1900
DGENRE=Blues
TTITLE0=Testify
TTITLE1=So Excited
TTITLE2=Voodoo Chile (Slight Return)
TTITLE3=Pride and Joy
TTITLE4=Tell Me
TTITLE5=Mary Had a Little Lamb
TTITLE6=Texas Flood
TTITLE7=Love Struck Baby
TTITLE8=Hug You Squeeze You
TTITLE9=Third Stone From the Sun
TTITLE10=Lenny
TTITLE11=Wham!
EXTD=
EXTT0=
EXTT1=
EXTT2=
EXTT3=
EXTT4=
EXTT5=
EXTT6=
EXTT7=
EXTT8=
EXTT9=
EXTT10=
EXTT11=
PLAYORDER=
